<mxfile host="app.diagrams.net" modified="2023-08-24T06:40:02.683Z" agent="Mozilla/5.0 (Windows NT 10.0; Win64; x64) AppleWebKit/537.36 (KHTML, like Gecko) Chrome/116.0.0.0 Safari/537.36 Edg/116.0.1938.54" etag="zi-7wvAJyc-GTp3q7Gr9" version="21.6.9" type="github">
  <diagram name="第 1 页" id="CWuAyleLhy3Zyp6WkLwi">
    <mxGraphModel dx="1379" dy="764" grid="1" gridSize="10" guides="1" tooltips="1" connect="1" arrows="1" fold="1" page="1" pageScale="1" pageWidth="827" pageHeight="1169" math="0" shadow="0">
      <root>
        <mxCell id="0" />
        <mxCell id="1" parent="0" />
        <mxCell id="amn2PHYWtZ2Sav2Mm2Ex-6" value="Indexer" style="swimlane;fontStyle=1;align=center;verticalAlign=top;childLayout=stackLayout;horizontal=1;startSize=26;horizontalStack=0;resizeParent=1;resizeParentMax=0;resizeLast=0;collapsible=1;marginBottom=0;whiteSpace=wrap;html=1;" parent="1" vertex="1">
          <mxGeometry x="500" y="700" width="360" height="160" as="geometry" />
        </mxCell>
        <mxCell id="amn2PHYWtZ2Sav2Mm2Ex-7" value="&lt;div data-lake_diagram_content_editor_data=&quot;true&quot; style=&quot;font-size: 13px;&quot;&gt;&lt;div style=&quot;text-align: center; font-size: 13px;&quot;&gt;&lt;div style=&quot;text-align: left; font-size: 13px;&quot;&gt;&lt;div data-lake_diagram_content_editor_data=&quot;true&quot; style=&quot;font-size: 13px;&quot;&gt;&lt;div style=&quot;text-align: center; font-size: 13px;&quot;&gt;&lt;div style=&quot;text-align: left; font-size: 13px;&quot;&gt;&lt;font color=&quot;#ff0000&quot;&gt;Store&lt;/font&gt;&lt;/div&gt;&lt;div style=&quot;text-align: left; font-size: 13px;&quot;&gt;Index(indexName string, obj interface{}) ([]interface{}, error)&lt;/div&gt;&lt;div style=&quot;text-align: left; font-size: 13px;&quot;&gt;IndexKeys(indexName, indexKey string) ([]string, error)&lt;/div&gt;&lt;div style=&quot;text-align: left; font-size: 13px;&quot;&gt;istIndexFuncValues(indexName string) []string&lt;br style=&quot;font-size: 13px;&quot;&gt;&lt;/div&gt;&lt;div style=&quot;text-align: left; font-size: 13px;&quot;&gt;ByIndex(indexName, indexKey string) ([]interface{}, error)&lt;br style=&quot;font-size: 13px;&quot;&gt;&lt;/div&gt;&lt;div style=&quot;text-align: left; font-size: 13px;&quot;&gt;GetIndexers() Indexers&lt;br style=&quot;font-size: 13px;&quot;&gt;&lt;/div&gt;&lt;div style=&quot;text-align: left; font-size: 13px;&quot;&gt;AddIndexers(newIndexers Indexers) error&lt;br style=&quot;font-size: 13px;&quot;&gt;&lt;/div&gt;&lt;div style=&quot;text-align: left; font-size: 13px;&quot;&gt;&lt;/div&gt;&lt;/div&gt;&lt;/div&gt;&lt;/div&gt;&lt;div style=&quot;text-align: left; font-size: 13px;&quot;&gt;&lt;/div&gt;&lt;/div&gt;&lt;/div&gt;" style="text;strokeColor=none;fillColor=none;align=left;verticalAlign=top;spacingLeft=4;spacingRight=4;overflow=hidden;rotatable=0;points=[[0,0.5],[1,0.5]];portConstraint=eastwest;whiteSpace=wrap;html=1;fontSize=13;" parent="amn2PHYWtZ2Sav2Mm2Ex-6" vertex="1">
          <mxGeometry y="26" width="360" height="124" as="geometry" />
        </mxCell>
        <mxCell id="amn2PHYWtZ2Sav2Mm2Ex-8" value="" style="line;strokeWidth=1;fillColor=none;align=left;verticalAlign=middle;spacingTop=-1;spacingLeft=3;spacingRight=3;rotatable=0;labelPosition=right;points=[];portConstraint=eastwest;strokeColor=inherit;" parent="amn2PHYWtZ2Sav2Mm2Ex-6" vertex="1">
          <mxGeometry y="150" width="360" height="10" as="geometry" />
        </mxCell>
        <mxCell id="2vA7no4IRnuFz4jKMZob-2" value="cache" style="swimlane;fontStyle=1;align=center;verticalAlign=top;childLayout=stackLayout;horizontal=1;startSize=26;horizontalStack=0;resizeParent=1;resizeParentMax=0;resizeLast=0;collapsible=1;marginBottom=0;whiteSpace=wrap;html=1;" parent="1" vertex="1">
          <mxGeometry x="240" y="710" width="200" height="80" as="geometry" />
        </mxCell>
        <mxCell id="2vA7no4IRnuFz4jKMZob-3" value="&lt;div data-lake_diagram_content_editor_data=&quot;true&quot; style=&quot;&quot;&gt;&lt;div style=&quot;text-align: center;&quot;&gt;&lt;div style=&quot;text-align: left;&quot;&gt;&lt;div data-lake_diagram_content_editor_data=&quot;true&quot; style=&quot;&quot;&gt;&lt;div style=&quot;text-align: center;&quot;&gt;&lt;div style=&quot;text-align: left;&quot;&gt;&lt;div style=&quot;&quot;&gt;&lt;div data-lake_diagram_content_editor_data=&quot;true&quot;&gt;&lt;div data-lake_diagram_content_editor_data=&quot;true&quot;&gt;&lt;div style=&quot;text-align:center;&quot;&gt;&lt;div style=&quot;text-align:left;&quot;&gt;&lt;div data-lake_diagram_content_editor_data=&quot;true&quot;&gt;&lt;div style=&quot;text-align:center;&quot;&gt;&lt;div style=&quot;text-align:left;&quot;&gt;&lt;div data-lake_diagram_content_editor_data=&quot;true&quot;&gt;&lt;div&gt;&lt;font color=&quot;#ff0000&quot;&gt;cacheStorage&lt;/font&gt;&amp;nbsp;&lt;span style=&quot;font-size:12px;&quot;&gt;&lt;/span&gt;ThreadSafeStore&lt;/div&gt;&lt;div&gt;&lt;span style=&quot;font-size:12px;&quot;&gt;&amp;nbsp;keyFunc KeyFunc&lt;/span&gt;&lt;/div&gt;&lt;/div&gt;&lt;/div&gt;&lt;/div&gt;&lt;/div&gt;&lt;/div&gt;&lt;/div&gt;&lt;/div&gt;&lt;/div&gt;&lt;/div&gt;&lt;ul style=&quot;font-size: 12px; border-color: var(--border-color);&quot;&gt;&lt;/ul&gt;&lt;/div&gt;&lt;div style=&quot;font-size: 13px; text-align: left;&quot;&gt;&lt;/div&gt;&lt;/div&gt;&lt;/div&gt;&lt;/div&gt;&lt;div style=&quot;font-size: 13px; text-align: left;&quot;&gt;&lt;/div&gt;&lt;/div&gt;&lt;/div&gt;" style="text;strokeColor=none;fillColor=none;align=left;verticalAlign=top;spacingLeft=4;spacingRight=4;overflow=hidden;rotatable=0;points=[[0,0.5],[1,0.5]];portConstraint=eastwest;whiteSpace=wrap;html=1;fontSize=13;" parent="2vA7no4IRnuFz4jKMZob-2" vertex="1">
          <mxGeometry y="26" width="200" height="44" as="geometry" />
        </mxCell>
        <mxCell id="2vA7no4IRnuFz4jKMZob-4" value="" style="line;strokeWidth=1;fillColor=none;align=left;verticalAlign=middle;spacingTop=-1;spacingLeft=3;spacingRight=3;rotatable=0;labelPosition=right;points=[];portConstraint=eastwest;strokeColor=inherit;" parent="2vA7no4IRnuFz4jKMZob-2" vertex="1">
          <mxGeometry y="70" width="200" height="10" as="geometry" />
        </mxCell>
        <mxCell id="ZDks1u4FG_cS0V7qPcgf-1" value="&lt;div data-lake_diagram_content_editor_data=&quot;true&quot;&gt;&lt;div style=&quot;text-align:left;&quot;&gt;SharedInformer&amp;nbsp;&lt;/div&gt;&lt;/div&gt;" style="swimlane;fontStyle=1;align=center;verticalAlign=top;childLayout=stackLayout;horizontal=1;startSize=26;horizontalStack=0;resizeParent=1;resizeParentMax=0;resizeLast=0;collapsible=1;marginBottom=0;whiteSpace=wrap;html=1;" vertex="1" parent="1">
          <mxGeometry x="510" y="415" width="360" height="170" as="geometry" />
        </mxCell>
        <mxCell id="ZDks1u4FG_cS0V7qPcgf-2" value="&lt;div data-lake_diagram_content_editor_data=&quot;true&quot; style=&quot;&quot;&gt;&lt;div style=&quot;text-align: center;&quot;&gt;&lt;div style=&quot;text-align: left;&quot;&gt;&lt;div data-lake_diagram_content_editor_data=&quot;true&quot; style=&quot;&quot;&gt;&lt;div style=&quot;text-align: center;&quot;&gt;&lt;div style=&quot;text-align: left;&quot;&gt;&lt;div style=&quot;&quot;&gt;&lt;div data-lake_diagram_content_editor_data=&quot;true&quot;&gt;&lt;div data-lake_diagram_content_editor_data=&quot;true&quot;&gt;&lt;div style=&quot;text-align:center;&quot;&gt;&lt;div style=&quot;text-align:left;&quot;&gt;AddEventHandler(handler ResourceEventHandler)&lt;/div&gt;&lt;div style=&quot;text-align:left;&quot;&gt;&lt;span style=&quot;font-size: 12px; background-color: initial;&quot;&gt;AddEventHandlerWithResyncPeriod(handler&amp;nbsp; &amp;nbsp; &amp;nbsp; &amp;nbsp; &amp;nbsp;&lt;/span&gt;&lt;/div&gt;&lt;div style=&quot;text-align:left;&quot;&gt;&lt;span style=&quot;font-size:12px;&quot;&gt;ResourceEventHandler, resyncPeriod time.Duration)&lt;/span&gt;&lt;/div&gt;&lt;div style=&quot;text-align:left;&quot;&gt;&lt;span style=&quot;font-size:12px;&quot;&gt;GetStore() Store&lt;/span&gt;&lt;/div&gt;&lt;div style=&quot;text-align:left;&quot;&gt;&lt;span style=&quot;font-size:12px;&quot;&gt;GetController() Controller&lt;/span&gt;&lt;/div&gt;&lt;div style=&quot;text-align:left;&quot;&gt;&lt;span style=&quot;font-size:12px;&quot;&gt;Run(stopCh &amp;lt;-chan struct{})&lt;/span&gt;&lt;/div&gt;&lt;div style=&quot;text-align:left;&quot;&gt;&lt;span style=&quot;font-size:12px;&quot;&gt;HasSynced() bool&lt;/span&gt;&lt;/div&gt;&lt;div style=&quot;text-align:left;&quot;&gt;&lt;span style=&quot;font-size: 12px; background-color: initial;&quot;&gt;LastSyncResourceVersion() string&lt;/span&gt;&lt;/div&gt;&lt;/div&gt;&lt;/div&gt;&lt;/div&gt;&lt;/div&gt;&lt;ul style=&quot;font-size: 12px; border-color: var(--border-color);&quot;&gt;&lt;/ul&gt;&lt;/div&gt;&lt;div style=&quot;font-size: 13px; text-align: left;&quot;&gt;&lt;/div&gt;&lt;/div&gt;&lt;/div&gt;&lt;/div&gt;&lt;div style=&quot;font-size: 13px; text-align: left;&quot;&gt;&lt;/div&gt;&lt;/div&gt;&lt;/div&gt;" style="text;strokeColor=none;fillColor=none;align=left;verticalAlign=top;spacingLeft=4;spacingRight=4;overflow=hidden;rotatable=0;points=[[0,0.5],[1,0.5]];portConstraint=eastwest;whiteSpace=wrap;html=1;fontSize=13;" vertex="1" parent="ZDks1u4FG_cS0V7qPcgf-1">
          <mxGeometry y="26" width="360" height="144" as="geometry" />
        </mxCell>
        <mxCell id="ZDks1u4FG_cS0V7qPcgf-3" value="" style="line;strokeWidth=1;fillColor=none;align=left;verticalAlign=middle;spacingTop=-1;spacingLeft=3;spacingRight=3;rotatable=0;labelPosition=right;points=[];portConstraint=eastwest;strokeColor=inherit;" vertex="1" parent="ZDks1u4FG_cS0V7qPcgf-1">
          <mxGeometry y="170" width="360" as="geometry" />
        </mxCell>
        <mxCell id="ZDks1u4FG_cS0V7qPcgf-4" value="SharedIndexInformer&amp;nbsp;" style="swimlane;fontStyle=1;align=center;verticalAlign=top;childLayout=stackLayout;horizontal=1;startSize=26;horizontalStack=0;resizeParent=1;resizeParentMax=0;resizeLast=0;collapsible=1;marginBottom=0;whiteSpace=wrap;html=1;" vertex="1" parent="1">
          <mxGeometry x="240" y="420" width="210" height="100" as="geometry" />
        </mxCell>
        <mxCell id="ZDks1u4FG_cS0V7qPcgf-5" value="&lt;div data-lake_diagram_content_editor_data=&quot;true&quot; style=&quot;&quot;&gt;&lt;div style=&quot;text-align: center;&quot;&gt;&lt;div style=&quot;text-align: left;&quot;&gt;&lt;div data-lake_diagram_content_editor_data=&quot;true&quot; style=&quot;&quot;&gt;&lt;div style=&quot;text-align: center;&quot;&gt;&lt;div style=&quot;text-align: left;&quot;&gt;&lt;div style=&quot;&quot;&gt;&lt;div data-lake_diagram_content_editor_data=&quot;true&quot;&gt;&lt;div data-lake_diagram_content_editor_data=&quot;true&quot;&gt;&lt;div style=&quot;text-align:center;&quot;&gt;&lt;div style=&quot;text-align:left;&quot;&gt;&lt;font color=&quot;#ff0000&quot;&gt;SharedInformer&lt;/font&gt;&lt;br&gt;&lt;/div&gt;&lt;div style=&quot;text-align:left;&quot;&gt;&lt;span style=&quot;font-size:12px;&quot;&gt;AddIndexers(indexers Indexers) error&lt;br&gt;&lt;/span&gt;&lt;/div&gt;&lt;div style=&quot;text-align:left;&quot;&gt;&lt;span style=&quot;font-size:12px;&quot;&gt;GetIndexer() Indexer&lt;/span&gt;&lt;/div&gt;&lt;/div&gt;&lt;/div&gt;&lt;/div&gt;&lt;/div&gt;&lt;ul style=&quot;font-size: 12px; border-color: var(--border-color);&quot;&gt;&lt;/ul&gt;&lt;/div&gt;&lt;div style=&quot;font-size: 13px; text-align: left;&quot;&gt;&lt;/div&gt;&lt;/div&gt;&lt;/div&gt;&lt;/div&gt;&lt;div style=&quot;font-size: 13px; text-align: left;&quot;&gt;&lt;/div&gt;&lt;/div&gt;&lt;/div&gt;" style="text;strokeColor=none;fillColor=none;align=left;verticalAlign=top;spacingLeft=4;spacingRight=4;overflow=hidden;rotatable=0;points=[[0,0.5],[1,0.5]];portConstraint=eastwest;whiteSpace=wrap;html=1;fontSize=13;" vertex="1" parent="ZDks1u4FG_cS0V7qPcgf-4">
          <mxGeometry y="26" width="210" height="64" as="geometry" />
        </mxCell>
        <mxCell id="ZDks1u4FG_cS0V7qPcgf-6" value="" style="line;strokeWidth=1;fillColor=none;align=left;verticalAlign=middle;spacingTop=-1;spacingLeft=3;spacingRight=3;rotatable=0;labelPosition=right;points=[];portConstraint=eastwest;strokeColor=inherit;" vertex="1" parent="ZDks1u4FG_cS0V7qPcgf-4">
          <mxGeometry y="90" width="210" height="10" as="geometry" />
        </mxCell>
        <mxCell id="ZDks1u4FG_cS0V7qPcgf-8" value="1" style="endArrow=open;html=1;endSize=12;startArrow=diamondThin;startSize=14;startFill=1;edgeStyle=orthogonalEdgeStyle;align=left;verticalAlign=bottom;rounded=0;exitX=1.005;exitY=0.141;exitDx=0;exitDy=0;exitPerimeter=0;" edge="1" parent="1" source="ZDks1u4FG_cS0V7qPcgf-5">
          <mxGeometry x="-1" y="3" relative="1" as="geometry">
            <mxPoint x="620" y="390" as="sourcePoint" />
            <mxPoint x="510" y="455" as="targetPoint" />
          </mxGeometry>
        </mxCell>
        <mxCell id="ZDks1u4FG_cS0V7qPcgf-9" value="" style="endArrow=block;dashed=1;endFill=0;endSize=12;html=1;rounded=0;entryX=0;entryY=0.125;entryDx=0;entryDy=0;entryPerimeter=0;exitX=1.015;exitY=0.125;exitDx=0;exitDy=0;exitPerimeter=0;" edge="1" parent="1" source="2vA7no4IRnuFz4jKMZob-2" target="amn2PHYWtZ2Sav2Mm2Ex-6">
          <mxGeometry width="160" relative="1" as="geometry">
            <mxPoint x="450" y="760" as="sourcePoint" />
            <mxPoint x="580" y="760" as="targetPoint" />
          </mxGeometry>
        </mxCell>
        <mxCell id="ZDks1u4FG_cS0V7qPcgf-11" value="&lt;div data-lake_diagram_content_editor_data=&quot;true&quot;&gt;&lt;div style=&quot;text-align:left;&quot;&gt;&lt;div data-lake_diagram_content_editor_data=&quot;true&quot;&gt;Store&lt;/div&gt;&lt;/div&gt;&lt;/div&gt;" style="swimlane;fontStyle=1;align=center;verticalAlign=top;childLayout=stackLayout;horizontal=1;startSize=26;horizontalStack=0;resizeParent=1;resizeParentMax=0;resizeLast=0;collapsible=1;marginBottom=0;whiteSpace=wrap;html=1;" vertex="1" parent="1">
          <mxGeometry x="930" y="700" width="340" height="190" as="geometry" />
        </mxCell>
        <mxCell id="ZDks1u4FG_cS0V7qPcgf-12" value="&lt;div data-lake_diagram_content_editor_data=&quot;true&quot; style=&quot;&quot;&gt;&lt;div style=&quot;text-align: center;&quot;&gt;&lt;div style=&quot;text-align: left;&quot;&gt;&lt;div data-lake_diagram_content_editor_data=&quot;true&quot; style=&quot;&quot;&gt;&lt;div style=&quot;text-align: center;&quot;&gt;&lt;div style=&quot;text-align: left;&quot;&gt;&lt;div style=&quot;&quot;&gt;&lt;div data-lake_diagram_content_editor_data=&quot;true&quot;&gt;&lt;div data-lake_diagram_content_editor_data=&quot;true&quot;&gt;&lt;div style=&quot;text-align:center;&quot;&gt;&lt;div style=&quot;text-align:left;&quot;&gt;&lt;div data-lake_diagram_content_editor_data=&quot;true&quot;&gt;&lt;div style=&quot;text-align:center;&quot;&gt;&lt;div style=&quot;text-align:left;&quot;&gt;&lt;div data-lake_diagram_content_editor_data=&quot;true&quot;&gt;&lt;div style=&quot;text-align:center;&quot;&gt;&lt;div style=&quot;text-align:left;&quot;&gt;&amp;nbsp;Add(obj interface{}) error&lt;br/&gt;&lt;/div&gt;&lt;div style=&quot;text-align:left;&quot;&gt;&lt;span style=&quot;font-size:12px;&quot;&gt;&amp;nbsp;Update(obj interface{}) error&lt;br/&gt;&lt;/span&gt;&lt;/div&gt;&lt;div style=&quot;text-align:left;&quot;&gt;&lt;span style=&quot;font-size:12px;&quot;&gt;&amp;nbsp;Delete(obj interface{}) error&lt;br/&gt;&lt;/span&gt;&lt;/div&gt;&lt;div style=&quot;text-align:left;&quot;&gt;&lt;span style=&quot;font-size:12px;&quot;&gt;&amp;nbsp;List() []interface{}&lt;br/&gt;&lt;/span&gt;&lt;/div&gt;&lt;div style=&quot;text-align:left;&quot;&gt;&lt;span style=&quot;font-size:12px;&quot;&gt;&amp;nbsp;ListKeys() []string&lt;br/&gt;&lt;/span&gt;&lt;/div&gt;&lt;div style=&quot;text-align:left;&quot;&gt;&lt;span style=&quot;font-size:12px;&quot;&gt;&amp;nbsp;Get(obj interface{}) (item interface{}, exists bool, err error)&lt;br/&gt;&lt;/span&gt;&lt;/div&gt;&lt;div style=&quot;text-align:left;&quot;&gt;&lt;span style=&quot;font-size:12px;&quot;&gt;&amp;nbsp;GetByKey(key string) (item interface{}, exists bool, err error)&lt;/span&gt;&lt;/div&gt;&lt;div style=&quot;text-align:left;&quot;&gt;&lt;span style=&quot;font-size:12px;&quot;&gt;&amp;nbsp;Replace([]interface{}, string) error&lt;br/&gt;&lt;/span&gt;&lt;/div&gt;&lt;div style=&quot;text-align:left;&quot;&gt;&lt;span style=&quot;font-size:12px;&quot;&gt;&amp;nbsp;Resync() error&amp;nbsp; LastSyncResourceVersion() string&lt;/span&gt;&lt;/div&gt;&lt;/div&gt;&lt;/div&gt;&lt;/div&gt;&lt;div style=&quot;text-align:left;&quot;&gt;&lt;span style=&quot;font-size:12px;&quot;&gt;&lt;/span&gt;&lt;/div&gt;&lt;/div&gt;&lt;/div&gt;&lt;/div&gt;&lt;/div&gt;&lt;/div&gt;&lt;/div&gt;&lt;/div&gt;&lt;ul style=&quot;font-size: 12px; border-color: var(--border-color);&quot;&gt;&lt;/ul&gt;&lt;/div&gt;&lt;div style=&quot;font-size: 13px; text-align: left;&quot;&gt;&lt;/div&gt;&lt;/div&gt;&lt;/div&gt;&lt;/div&gt;&lt;div style=&quot;font-size: 13px; text-align: left;&quot;&gt;&lt;/div&gt;&lt;/div&gt;&lt;/div&gt;" style="text;strokeColor=none;fillColor=none;align=left;verticalAlign=top;spacingLeft=4;spacingRight=4;overflow=hidden;rotatable=0;points=[[0,0.5],[1,0.5]];portConstraint=eastwest;whiteSpace=wrap;html=1;fontSize=13;" vertex="1" parent="ZDks1u4FG_cS0V7qPcgf-11">
          <mxGeometry y="26" width="340" height="164" as="geometry" />
        </mxCell>
        <mxCell id="ZDks1u4FG_cS0V7qPcgf-13" value="" style="line;strokeWidth=1;fillColor=none;align=left;verticalAlign=middle;spacingTop=-1;spacingLeft=3;spacingRight=3;rotatable=0;labelPosition=right;points=[];portConstraint=eastwest;strokeColor=inherit;" vertex="1" parent="ZDks1u4FG_cS0V7qPcgf-11">
          <mxGeometry y="190" width="340" as="geometry" />
        </mxCell>
        <mxCell id="ZDks1u4FG_cS0V7qPcgf-15" value="1" style="endArrow=open;html=1;endSize=12;startArrow=diamondThin;startSize=14;startFill=1;edgeStyle=orthogonalEdgeStyle;align=left;verticalAlign=bottom;rounded=0;exitX=1.008;exitY=0.105;exitDx=0;exitDy=0;exitPerimeter=0;entryX=-0.012;entryY=0.079;entryDx=0;entryDy=0;entryPerimeter=0;" edge="1" parent="1" source="amn2PHYWtZ2Sav2Mm2Ex-7" target="ZDks1u4FG_cS0V7qPcgf-12">
          <mxGeometry x="-1" y="3" relative="1" as="geometry">
            <mxPoint x="870" y="670" as="sourcePoint" />
            <mxPoint x="1030" y="670" as="targetPoint" />
          </mxGeometry>
        </mxCell>
        <mxCell id="ZDks1u4FG_cS0V7qPcgf-17" value="" style="endArrow=block;dashed=1;endFill=0;endSize=12;html=1;rounded=0;entryX=0.5;entryY=0;entryDx=0;entryDy=0;exitX=1.01;exitY=0.125;exitDx=0;exitDy=0;exitPerimeter=0;" edge="1" parent="1" source="2vA7no4IRnuFz4jKMZob-2" target="ZDks1u4FG_cS0V7qPcgf-11">
          <mxGeometry width="160" relative="1" as="geometry">
            <mxPoint x="460" y="690" as="sourcePoint" />
            <mxPoint x="517" y="690" as="targetPoint" />
            <Array as="points">
              <mxPoint x="470" y="720" />
              <mxPoint x="470" y="670" />
              <mxPoint x="600" y="670" />
              <mxPoint x="760" y="670" />
              <mxPoint x="1100" y="670" />
            </Array>
          </mxGeometry>
        </mxCell>
        <mxCell id="ZDks1u4FG_cS0V7qPcgf-18" value="&lt;div data-lake_diagram_content_editor_data=&quot;true&quot;&gt;&lt;div style=&quot;text-align:left;&quot;&gt;&lt;div data-lake_diagram_content_editor_data=&quot;true&quot;&gt;threadSafeMap&lt;/div&gt;&lt;/div&gt;&lt;/div&gt;" style="swimlane;fontStyle=1;align=center;verticalAlign=top;childLayout=stackLayout;horizontal=1;startSize=26;horizontalStack=0;resizeParent=1;resizeParentMax=0;resizeLast=0;collapsible=1;marginBottom=0;whiteSpace=wrap;html=1;" vertex="1" parent="1">
          <mxGeometry x="240" y="890" width="170" height="100" as="geometry" />
        </mxCell>
        <mxCell id="ZDks1u4FG_cS0V7qPcgf-19" value="&lt;div data-lake_diagram_content_editor_data=&quot;true&quot; style=&quot;&quot;&gt;&lt;div style=&quot;text-align: center;&quot;&gt;&lt;div style=&quot;text-align: left;&quot;&gt;&lt;div data-lake_diagram_content_editor_data=&quot;true&quot; style=&quot;&quot;&gt;&lt;div style=&quot;text-align: center;&quot;&gt;&lt;div style=&quot;text-align: left;&quot;&gt;&lt;div style=&quot;&quot;&gt;&lt;div data-lake_diagram_content_editor_data=&quot;true&quot;&gt;&lt;div data-lake_diagram_content_editor_data=&quot;true&quot;&gt;&lt;div style=&quot;text-align:center;&quot;&gt;&lt;div style=&quot;text-align:left;&quot;&gt;&lt;div data-lake_diagram_content_editor_data=&quot;true&quot;&gt;&lt;div style=&quot;text-align:center;&quot;&gt;&lt;div style=&quot;text-align:left;&quot;&gt;&amp;nbsp;lock  sync.RWMutex&lt;br&gt;&lt;/div&gt;&lt;div style=&quot;text-align:left;&quot;&gt;&lt;span style=&quot;font-size:12px;&quot;&gt;&amp;nbsp;&lt;/span&gt;items&amp;nbsp;&lt;span style=&quot;font-size:12px;&quot;&gt;map[string]interface{}&lt;/span&gt;&lt;/div&gt;&lt;div style=&quot;text-align:left;&quot;&gt;&lt;span style=&quot;font-size:12px;&quot;&gt;&amp;nbsp;indexers Indexers&lt;/span&gt;&lt;/div&gt;&lt;div style=&quot;text-align:left;&quot;&gt;&lt;span style=&quot;font-size:12px;&quot;&gt;&amp;nbsp;indices Indices&lt;/span&gt;&lt;/div&gt;&lt;div style=&quot;text-align:left;&quot;&gt;&lt;span style=&quot;font-size:12px;&quot;&gt;&lt;br/&gt;&lt;/span&gt;&lt;/div&gt;&lt;div style=&quot;text-align:left;&quot;&gt;&lt;span style=&quot;font-size:12px;&quot;&gt;&lt;/span&gt;&lt;/div&gt;&lt;/div&gt;&lt;/div&gt;&lt;/div&gt;&lt;/div&gt;&lt;/div&gt;&lt;/div&gt;&lt;/div&gt;&lt;ul style=&quot;font-size: 12px; border-color: var(--border-color);&quot;&gt;&lt;/ul&gt;&lt;/div&gt;&lt;div style=&quot;font-size: 13px; text-align: left;&quot;&gt;&lt;/div&gt;&lt;/div&gt;&lt;/div&gt;&lt;/div&gt;&lt;div style=&quot;font-size: 13px; text-align: left;&quot;&gt;&lt;/div&gt;&lt;/div&gt;&lt;/div&gt;" style="text;strokeColor=none;fillColor=none;align=left;verticalAlign=top;spacingLeft=4;spacingRight=4;overflow=hidden;rotatable=0;points=[[0,0.5],[1,0.5]];portConstraint=eastwest;whiteSpace=wrap;html=1;fontSize=13;" vertex="1" parent="ZDks1u4FG_cS0V7qPcgf-18">
          <mxGeometry y="26" width="170" height="74" as="geometry" />
        </mxCell>
        <mxCell id="ZDks1u4FG_cS0V7qPcgf-20" value="" style="line;strokeWidth=1;fillColor=none;align=left;verticalAlign=middle;spacingTop=-1;spacingLeft=3;spacingRight=3;rotatable=0;labelPosition=right;points=[];portConstraint=eastwest;strokeColor=inherit;" vertex="1" parent="ZDks1u4FG_cS0V7qPcgf-18">
          <mxGeometry y="100" width="170" as="geometry" />
        </mxCell>
        <mxCell id="ZDks1u4FG_cS0V7qPcgf-21" value="&lt;div data-lake_diagram_content_editor_data=&quot;true&quot;&gt;&lt;div style=&quot;text-align:left;&quot;&gt;ThreadSafeStore&amp;nbsp;&lt;/div&gt;&lt;/div&gt;" style="swimlane;fontStyle=1;align=center;verticalAlign=top;childLayout=stackLayout;horizontal=1;startSize=26;horizontalStack=0;resizeParent=1;resizeParentMax=0;resizeLast=0;collapsible=1;marginBottom=0;whiteSpace=wrap;html=1;" vertex="1" parent="1">
          <mxGeometry x="480" y="890" width="340" height="270" as="geometry" />
        </mxCell>
        <mxCell id="ZDks1u4FG_cS0V7qPcgf-22" value="&lt;div data-lake_diagram_content_editor_data=&quot;true&quot; style=&quot;font-size: 13px;&quot;&gt;&lt;div style=&quot;text-align: center; font-size: 13px;&quot;&gt;&lt;div style=&quot;text-align: left; font-size: 13px;&quot;&gt;&lt;div data-lake_diagram_content_editor_data=&quot;true&quot; style=&quot;font-size: 13px;&quot;&gt;&lt;div style=&quot;text-align: center; font-size: 13px;&quot;&gt;&lt;div style=&quot;text-align: left; font-size: 13px;&quot;&gt;&lt;div data-lake_diagram_content_editor_data=&quot;true&quot;&gt;&lt;div style=&quot;text-align:center;&quot;&gt;&lt;div style=&quot;text-align:left;&quot;&gt;&lt;div data-lake_diagram_content_editor_data=&quot;true&quot;&gt;&lt;div style=&quot;text-align:center;&quot;&gt;&lt;div style=&quot;text-align:left;&quot;&gt;&amp;nbsp;Add(key string, obj interface{})&lt;br/&gt;&lt;/div&gt;&lt;div style=&quot;text-align:left;&quot;&gt;&lt;span style=&quot;font-size:12px;&quot;&gt;&amp;nbsp;Update(key string, obj interface{})&lt;br/&gt;&lt;/span&gt;&lt;/div&gt;&lt;div style=&quot;text-align:left;&quot;&gt;&lt;span style=&quot;font-size:12px;&quot;&gt;&amp;nbsp;Delete(key string)&lt;br/&gt;&lt;/span&gt;&lt;/div&gt;&lt;div style=&quot;text-align:left;&quot;&gt;&lt;span style=&quot;font-size:12px;&quot;&gt;&amp;nbsp;Get(key string) (item interface{}, exists bool)&lt;br/&gt;&lt;/span&gt;&lt;/div&gt;&lt;div style=&quot;text-align:left;&quot;&gt;&lt;span style=&quot;font-size:12px;&quot;&gt;&amp;nbsp;List() []interface{}&lt;br/&gt;&lt;/span&gt;&lt;/div&gt;&lt;div style=&quot;text-align:left;&quot;&gt;&lt;span style=&quot;font-size:12px;&quot;&gt;&amp;nbsp;ListKeys() []string&lt;br/&gt;&lt;/span&gt;&lt;/div&gt;&lt;div style=&quot;text-align:left;&quot;&gt;&lt;span style=&quot;font-size:12px;&quot;&gt;&amp;nbsp;Replace(map[string]interface{}, string)&lt;br/&gt;&lt;/span&gt;&lt;/div&gt;&lt;div style=&quot;text-align:left;&quot;&gt;&lt;span style=&quot;font-size:12px;&quot;&gt;&amp;nbsp;Index(indexName string, obj interface{}) ([]interface{}, error)&lt;br/&gt;&lt;/span&gt;&lt;/div&gt;&lt;div style=&quot;text-align:left;&quot;&gt;&lt;span style=&quot;font-size:12px;&quot;&gt;&amp;nbsp;IndexKeys(indexName, indexKey string) ([]string, error)&lt;br/&gt;&lt;/span&gt;&lt;/div&gt;&lt;div style=&quot;text-align:left;&quot;&gt;&lt;span style=&quot;font-size:12px;&quot;&gt;&amp;nbsp;ListIndexFuncValues(name string) []string&lt;br/&gt;&lt;/span&gt;&lt;/div&gt;&lt;div style=&quot;text-align:left;&quot;&gt;&lt;span style=&quot;font-size:12px;&quot;&gt;&amp;nbsp;ByIndex(indexName, indexKey string) ([]interface{}, error)&lt;br/&gt;&lt;/span&gt;&lt;/div&gt;&lt;div style=&quot;text-align:left;&quot;&gt;&lt;span style=&quot;font-size:12px;&quot;&gt;&amp;nbsp;GetIndexers() Indexers&lt;/span&gt;&lt;/div&gt;&lt;div style=&quot;text-align:left;&quot;&gt;&lt;span style=&quot;font-size:12px;&quot;&gt;&amp;nbsp;AddIndexers(newIndexers Indexers) error&lt;br/&gt;&lt;/span&gt;&lt;/div&gt;&lt;div style=&quot;text-align:left;&quot;&gt;&lt;span style=&quot;font-size:12px;&quot;&gt;&amp;nbsp;Resync() error&amp;nbsp; LastSyncResourceVersion() string&lt;/span&gt;&lt;br&gt;&lt;/div&gt;&lt;/div&gt;&lt;/div&gt;&lt;/div&gt;&lt;/div&gt;&lt;/div&gt;&lt;/div&gt;&lt;div style=&quot;text-align: left; font-size: 13px;&quot;&gt;&lt;/div&gt;&lt;/div&gt;&lt;/div&gt;&lt;/div&gt;&lt;div style=&quot;text-align: left; font-size: 13px;&quot;&gt;&lt;/div&gt;&lt;/div&gt;&lt;/div&gt;" style="text;strokeColor=none;fillColor=none;align=left;verticalAlign=top;spacingLeft=4;spacingRight=4;overflow=hidden;rotatable=0;points=[[0,0.5],[1,0.5]];portConstraint=eastwest;whiteSpace=wrap;html=1;fontSize=13;" vertex="1" parent="ZDks1u4FG_cS0V7qPcgf-21">
          <mxGeometry y="26" width="340" height="244" as="geometry" />
        </mxCell>
        <mxCell id="ZDks1u4FG_cS0V7qPcgf-24" value="" style="endArrow=block;dashed=1;endFill=0;endSize=12;html=1;rounded=0;entryX=0;entryY=0.037;entryDx=0;entryDy=0;entryPerimeter=0;exitX=1.015;exitY=0.125;exitDx=0;exitDy=0;exitPerimeter=0;" edge="1" parent="1" target="ZDks1u4FG_cS0V7qPcgf-21">
          <mxGeometry width="160" relative="1" as="geometry">
            <mxPoint x="410" y="900" as="sourcePoint" />
            <mxPoint x="467" y="900" as="targetPoint" />
          </mxGeometry>
        </mxCell>
        <mxCell id="ZDks1u4FG_cS0V7qPcgf-25" value="1" style="endArrow=open;html=1;endSize=12;startArrow=diamondThin;startSize=14;startFill=1;edgeStyle=orthogonalEdgeStyle;align=left;verticalAlign=bottom;rounded=0;exitX=-0.015;exitY=0.364;exitDx=0;exitDy=0;exitPerimeter=0;entryX=-0.024;entryY=0.17;entryDx=0;entryDy=0;entryPerimeter=0;" edge="1" parent="1" source="2vA7no4IRnuFz4jKMZob-3" target="ZDks1u4FG_cS0V7qPcgf-18">
          <mxGeometry x="-1" y="3" relative="1" as="geometry">
            <mxPoint x="140" y="820" as="sourcePoint" />
            <mxPoint x="190" y="910" as="targetPoint" />
            <Array as="points">
              <mxPoint x="200" y="752" />
              <mxPoint x="200" y="907" />
            </Array>
          </mxGeometry>
        </mxCell>
        <mxCell id="ZDks1u4FG_cS0V7qPcgf-26" value="&lt;div data-lake_diagram_content_editor_data=&quot;true&quot;&gt;&lt;div style=&quot;text-align:left;&quot;&gt;&lt;div data-lake_diagram_content_editor_data=&quot;true&quot;&gt;util&lt;/div&gt;&lt;/div&gt;&lt;/div&gt;" style="swimlane;fontStyle=1;align=center;verticalAlign=top;childLayout=stackLayout;horizontal=1;startSize=26;horizontalStack=0;resizeParent=1;resizeParentMax=0;resizeLast=0;collapsible=1;marginBottom=0;whiteSpace=wrap;html=1;" vertex="1" parent="1">
          <mxGeometry x="120" y="1200" width="380" height="120" as="geometry" />
        </mxCell>
        <mxCell id="ZDks1u4FG_cS0V7qPcgf-27" value="&lt;div data-lake_diagram_content_editor_data=&quot;true&quot; style=&quot;&quot;&gt;&lt;div style=&quot;text-align: center;&quot;&gt;&lt;div style=&quot;text-align: left;&quot;&gt;&lt;div data-lake_diagram_content_editor_data=&quot;true&quot; style=&quot;&quot;&gt;&lt;div style=&quot;text-align: center;&quot;&gt;&lt;div style=&quot;text-align: left;&quot;&gt;&lt;div style=&quot;&quot;&gt;&lt;div data-lake_diagram_content_editor_data=&quot;true&quot;&gt;&lt;div data-lake_diagram_content_editor_data=&quot;true&quot;&gt;&lt;div style=&quot;text-align:center;&quot;&gt;&lt;div style=&quot;text-align:left;&quot;&gt;&lt;div data-lake_diagram_content_editor_data=&quot;true&quot;&gt;&lt;div style=&quot;text-align:center;&quot;&gt;&lt;div style=&quot;text-align:left;&quot;&gt;&lt;div style=&quot;font-size: 15px;&quot; data-lake_diagram_content_editor_data=&quot;true&quot;&gt;&lt;div style=&quot;text-align:center;&quot;&gt;&lt;div style=&quot;text-align:left;&quot;&gt;type Index map[string]sets.String&lt;/div&gt;&lt;div style=&quot;text-align:left;&quot;&gt;&lt;span style=&quot;&quot;&gt;type Indexers map[string]IndexFunc&lt;/span&gt;&lt;/div&gt;&lt;div style=&quot;text-align:left;&quot;&gt;&lt;span style=&quot;&quot;&gt;type Indices map[string]Index&lt;/span&gt;&lt;/div&gt;&lt;div style=&quot;text-align:left;&quot;&gt;&lt;span style=&quot;&quot;&gt;type IndexFunc func(obj interface{}) ([]string, error)&lt;/span&gt;&lt;/div&gt;&lt;div style=&quot;text-align:left;&quot;&gt;&lt;span style=&quot;&quot;&gt;&lt;br&gt;&lt;/span&gt;&lt;/div&gt;&lt;div style=&quot;text-align:left;&quot;&gt;&lt;span style=&quot;font-size:12px;&quot;&gt;&lt;/span&gt;&lt;/div&gt;&lt;/div&gt;&lt;/div&gt;&lt;/div&gt;&lt;div style=&quot;text-align:left;&quot;&gt;&lt;span style=&quot;font-size:12px;&quot;&gt;&lt;/span&gt;&lt;/div&gt;&lt;/div&gt;&lt;/div&gt;&lt;/div&gt;&lt;/div&gt;&lt;/div&gt;&lt;/div&gt;&lt;/div&gt;&lt;ul style=&quot;font-size: 12px; border-color: var(--border-color);&quot;&gt;&lt;/ul&gt;&lt;/div&gt;&lt;div style=&quot;font-size: 13px; text-align: left;&quot;&gt;&lt;/div&gt;&lt;/div&gt;&lt;/div&gt;&lt;/div&gt;&lt;div style=&quot;font-size: 13px; text-align: left;&quot;&gt;&lt;/div&gt;&lt;/div&gt;&lt;/div&gt;" style="text;strokeColor=none;fillColor=none;align=left;verticalAlign=top;spacingLeft=4;spacingRight=4;overflow=hidden;rotatable=0;points=[[0,0.5],[1,0.5]];portConstraint=eastwest;whiteSpace=wrap;html=1;fontSize=13;" vertex="1" parent="ZDks1u4FG_cS0V7qPcgf-26">
          <mxGeometry y="26" width="380" height="94" as="geometry" />
        </mxCell>
        <mxCell id="ZDks1u4FG_cS0V7qPcgf-28" value="" style="line;strokeWidth=1;fillColor=none;align=left;verticalAlign=middle;spacingTop=-1;spacingLeft=3;spacingRight=3;rotatable=0;labelPosition=right;points=[];portConstraint=eastwest;strokeColor=inherit;" vertex="1" parent="ZDks1u4FG_cS0V7qPcgf-26">
          <mxGeometry y="120" width="380" as="geometry" />
        </mxCell>
        <mxCell id="ZDks1u4FG_cS0V7qPcgf-31" value="" style="shape=image;verticalLabelPosition=bottom;labelBackgroundColor=default;verticalAlign=top;aspect=fixed;imageAspect=0;image=data:image/png,iVBORw0KGgoAAAANSUhEUgAAAfkAAAFaCAYAAAAdPiSkAAAgAElEQVR4Ae2d/a8sR3nn+Wvm37nnR2Ln2sawiCVRVjkjiGMibaRcWDa7SKvAPVrQZglgs9ksb0Ebjg8gLRFJpGCDks3LRpeLEq1vZExwsOU1RhfHtaqXp/qpp6rnpadnpnvmY+l6erqrnnqez1NV367qPue8w6n/Xn/wx+4n3/8C/2BAH6AP0AfoA/SBGfeBh//vpaDu71Aa7176zkfc3z93m38woA/QB+gD9AH6wIz7wE9/9Bf9Iv+T73/J8Q8G9AH6AH2APkAfmFcfeOk7Hw43ZytF/s1X/o9e4HMMAQhAAAIQgMAMCCDyM0gSLkIAAhCAAASGEEDkh1CjDgQgAAEIQGAGBBD5GSQJFyEAAQhAAAJDCCDyQ6hRBwIQgAAEIDADAoj8DJKEixCAAAQgAIEhBBD5IdSoAwEIQAACEJgBAUR+BknCRQhAAAIQgMAQAoj8EGrUgQAEIAABCMyAACI/gyThIgQgAAEIQGAIAUR+CDXqQAACEIAABGZAAJGfQZJwEQIQgAAEIDCEACI/hBp1IAABCEAAAjMggMjPIEm4CAEIQAACEBhCAJEfQo06EIAABCAAgRkQQORnkCRchAAEIAABCAwhgMgPoUYdCEAAAhCAwAwIIPIzSBIuQgACEIAABIYQQOSHUKMOBCAAAQhAYAYEEPkZJAkXIQABCEAAAkMIIPJDqFEHAhCAAAQgMAMCiPwMkoSLEIAABCAAgSEEEPkh1KgDAQhAAAIQmAEBRH4GScJFCEAAAhCAwBACiPwQatSBAAQgAAEIzIAAIj+DJOEiBCAAAQhAYAgBRH4INepAAAIQgAAEZkAAkZ9BknARAhCAAAQgMITADEX+RffKx++4l65fHBLvZnVeeMY9uPMJ98qDzYr3lzqAr/2Nn+CVyPPBs89PM7bQb55xr670bn0Mrz57xz34+HPujZV29n0x+Xnnjpss7x0RTIOzc8EPz/noOd8RKNUnSeBgIv/G9SdG6sT7Ec7g3500QU9V5B88515aMRmMx3iSfdU5t14gj+r5CYl8EJ6D30w9715O/fsnfr64c8e9/IJkdE3u09iI5ZMdb8uP6ZAXf1zesExB5I8zZjvOb8iccvBcS153+Bxtnt7BhxlUReR9kkJHH2PlbjM+8g2JDMg77Z2M40wYNubtv8/V7yrSjUS+qjXOiVHbHrnfbhihFd3QL+TGO9iI4tQJvxi2/rbLBXu7itmonNMqflefBMOGn5ZznP/0DdWGhiZQ7GTmjj2yROSdc6MM/maS7OTTLLT5SbkZuW4/Tphrh5+r31XiRhaAyv6qE6O2PXK/XeW3uubFp3gM14ip2VfCuNCPSRB5hbU6rDi7Nq+q4iRPzNn3wwA9nsjLAFar03J7LgEw11+6fr75TD7cnYbtOb8t163Kw6Sgvnur8ZxMCnFCK1YH4ltyIdh+9vlUL237FSuMbXyNnTJsHaatSXn2utZXEfkHaQVgnuG1JsCSi7lbF3svpMcAsr3pwwkMNo917XNbk8f4/DGyzyw0D8mB+BFiNeIj/j8omRZCoXOY+4ds4UofSIXWfYgvYsfwj8y8zVX+mBgabUp/i5e68kUuVdvFeZ1Db8ByL1aNYjuOqTD+vqn7Qsy/jA3bjpzvQoj2dD51mbJ+N0alvr9e5E76gBTI8ZR1Q78v4mpP/LZc8EfVk+9xHNZ9v/TfX9f9p8x5+Xy9wfkFU17tzpXtGyaBxWrOtr7Oga9ecR4o8iWPMid5LMiYKcav6m/5cYzlYeylR3Uy/4e+mupK3nQ34bgjcGSRL182iZ1TDZw0QelOKh1LTwZVkkPH6jpJcT0LQ4IQvqs2/WkzudRtpkGmJgiZTFf7Wk8+wbadsMVu01eJK9rSHAI/Zcv79LJ+QdFwEZ+7CUlNHtlOX6zihwfWKNP1MeeqSeRF98qz3Ytlld85B+UzVGknx5z6RzHZ2hjTpNbFqIXP5L3wufwS+6aOWV6YUjZC22byTz5mn/Nk1f/iaNFfhW3xfLrOve2zwXvbf8SW9C/5bm6CK87e2Lq+JDc22XYcRzIeyphkjNU8O05SRvENQdkxFPuetBOzZsvEsyGHyj/rU/iuxFY4FDewZm7oay/YsmOo4tzarn/evax8lDHaxRdjsz7J9Wospf4n172/3reCczU+Y1Sr/m/Zxf6n8iljQcfS19+qMSK514sSmZtUG8nBKuZVjp/htSOLvE1YOTirjhQSFJOdO2noIHYiaJXxbZnz3p7vjHkwph5gBnI5YFeUKTq0L1e2ZyeZYMlOxPl7WbdZNvjZMVzf2Uu+cQLp6oc2jM3uXMe4niRkUHZlQj35X45JTpSfTb9bfhie9QTo7RpufW2bHJce2W+GW75szjd9TjtHuY8Z/7Kt7qDs97F8ManLblS22ea/Pk9t2xXDzjV1VMbezKGUDjmwfcNyKO2FqqGenuj92VY904d7RMuOv5JzElzN1Ddn+4n9LrmwY7/od32cWyIv0OSzjHcl5xC3ZWHbaHBOTG0fEw+qz03y2RwLbQ42D9Jeeb5dN5Rt5ERs8OnckUXeDnzdAWNS9R1oTFjZ6eMglK218jPfCMhA1NvBkn3fQdYM7LKzpYpFx9rM12BHtnqLz3JghoHc8rWYOKIfwWbyvzkBpImyuYXasFdNar6ZRqzaXnds8ymQ00TjY7KToeRmTQ6iJZP7lv9WBFr5rWLq/GwehXbasXn+uZ8VnJSl4ryJQRWTw7K/tctXuS7a8JZivS43emxILG3bUjfHJY6t6EsFBykvn8E33X53HNvQ414qyWd9rWzLXy/HT71zFG0FZqr/lZytGKb2LVf7XXaKivEs8YlffZx72pRdEWVTclHGLozSZyM/Of8h7pqltmB56GvF8dp82jlDarc4xHP1PJ9s5HmhVTfZXTE+peVz/jwNkc8dYUUqpWPasv5865x63tbs/MVg7+uoZcdcOUC1632+hs4sE4dUiAPXTwJ24g9+FxOgGeQte0VcqY3iXF+s4s+qz1g3TDxqsrV+BwtFm2Kz5NnciUDkE6xN8mR4CmbLMAuZ7ntlX1rZt30u7RjLbclBaS+ebZ2LwiiiFwVd++VrtuvtU+Q7fyQe/dnHuRb54GPxaKasu5LzRmLXZhPmCjUmtffV8Sb53GT8BsMr+mnRTsmh8GmjuIsaZ/Vl8iJfr/xiJ82DqiVUVQp9HT8RNDpK0ZFSRdNBmwOgKBPtrvO1KWbb+NoXa/DlE+4V/9Z9nkxbg9mca9kr4tqCRxXHihOmjSYXUyZaM/lr+W8FStiYX2wUJ1NZ0a7wNVwy3HJxc77ps53ITQzZVndQ9rd2+YpZo+3STme/O2rbrlfyJs5goDxX+dM1svGPqHp/87j29UN+bY6sz96P44r8ytgDB+tzB6fMUatceW51W2VOulbKo4pzGjPN1XRZNX5rjjtTsNEf634V65QMOjvl+ZJDV6pv16AocdZfJizykrzymVxIfOvlmCxuMZ+vPiuTQ+wcWYDtpN+aSEwHLTtb6i+mjDw20AOl8jW0ZSYyv+rId9Cb+GonNIk3bRFmDvWgEH+yj63BauPy5u258L3Mi5+Qi5f8EqbwYa817Um+UkVbJpw2MbX8tyKfvnc3PyIenpe0Ge1mLtr3dBwmVyMmgWfmLZzKl0nrfmFiaLRV9rd2+Wqyb7FYm6e27XoyrstVfUm2mHNfjjwi01i/yEHYHRD+EYK3WYh8sw9YIYu2y9zZMtF+YKb8Kznbm7GUGOtDi3M4Z3xvjOsitmR+nQ+x32nbMbY8n3k7LzyTf2lQzEvJ9Y3rZ4rf3llxrnY+WkyTw+Fjg3xabqpexaHFL9TXc11ss6rb97hPu3vmx9MWeZ+ckGx5xuWFpZXs1Ol6nmF1k3nMdjkQGhOC6aB2IAYrpkx3bo2vqUPnZ2VKOEq/Gr62JphYLG9RFhOpaevl9GM7eUJs2euNq5w4bF4s4+yWPzB+1GVV/kQ0W35YAW/5b8sER5R930d8G9p+sGPiKwKIX2TCzblTghFKiM3wqfuBNtbqv/q6FZt2+Urk85a6vnmpx0/Jvm27Fvk6h1VfCiEkAcrjUDM1OShu1GP8lfgIT42nkfN6fDbGtIiBypmtZ7+HZhs+hHIhRhVf1cc3E6i6zZKh/MhYKW5lmTKnqf/kHNTvwfg2W/bKeUHFpvnn4zX5bHBr9iuxV/Gz7ff1VTtexCCfQuBgIi8NTvGzHmhT9BKfRiWgJyF/rCb/UdupjMXJKk+o1fXzPVGJj85RwtK6uYk3nFoUNhP5cyVdcbYr+YOOh12z0M71rlZPqT4i77PZWB2cUpKJpSagb+y8cBxOdJmU6mzEM1bA7fe+F+rqFWKbcbB3sJu5viiPf77iauY/f/1w42E3HlUsu5k7ydqIfEpr6Cz5Ge1J5vpMg/IrZ73Kk994qLdTD4eGSWkV67QF/PHnXPwDNTpH6VqfSKft3ihOUeTjYxX57Ybp8Ulf/VVundy1jrP8gZpy+34mAYedHt1HZuL3gd1E5A8MnOYOTyCs2vUzSvUexKG86XwobzgO1T7tQAAC50kAkT/PvBM1BCAAAQicAQFE/gySTIgQgAAEIHCeBBD588w7UUMAAhCAwBkQQOTPIMmECAEIQAAC50kAkT/PvBM1BCAAAQicAQFE/gySTIgQgAAEIHCeBBD588w7UUMAAhCAwBkQQOTPIMmECAEIQAAC50kAkT/PvBM1BCAAAQicAQFE/gySTIgQgAAEIHCeBBD588w7UUMAAhCAwBkQOFORv++ubi3cxd37Z5DiI4d4vXSLxdLdiBvh+4W7uicnDvh578pdLBZusVi45XWj3XS9ea1RfHKngv9HYntMGLaPHdOXFW3fXC7c4jKPhBUlt7kU57JR7B6EY/LXj8PRWWzDzbmQj1tX7tRV4Egif+OWi/Zk5MH3ie94gwSR32447FDaThxHE3nf53rEXcJD5IXEvD5tH5uo9+PNXzrAeYn8fhhoHpsfB18Q+Y+4v3/utnvzlf+zObkNSt6/e9G+iwuTrFr1GVvjdZCpivxU/TKJ2ObrLhPwLnWtj4NWuRvcGNh2DvW9xWZQjLXDYXwebfIbMAZaLOqwDnimHcN489eeQtk7xzaXPUVTmD1uny5cOfiXI6zkY6JbW6K94p+wjDdIjtfZVmd4qn6t9nrl1V0mjl3qWqcGCSAibzHu//uAMTBmPxklwHYM481fozhZG9k7xzaX2pHxzyDyt91Pf/QXAew7NN6XvrOHlbzvSM1VQv8WvvhkB4l8DwlMz1qL579SMUzw8Vmsfx57cfem8Uw+Tuj+evinfIz2y8cL8VzfroN05thO8QzY+JKfS9nzwU//tCjasjdFttMKi/ApdbOwlbFVj0PC4O74ZJ+En/60fipOulg+thOH/d5jT+LI+dDP9bPx7qDsA+Xzvupan63MyzlnmZit/tK/sm/Eukt3o20kToUvll0Piy7KeFS27fOW+mH2f3W+Cx+krwTTsa91zBc9Y9U5J21dd+85ZD903OKbCsL6n/u2jb/wzTnrd+6n0qdM/WxXtW0Pe22mgsHXyxvTdt+4Fy5qLKkYNrVlfVodh8w16cmy5OXe6j7gwyvzIP21jK3fl2S/eK4ez1Xzi2/M5EbmxGC/sCFl1ZjaOL9lzIvwSLi/T0s+ij5R9N1G/9/Yl8LqUb8cfCXvwTY7gYdnJz2DxiZFOmlnLyVUd5rUufRAqevFzlGVUf4UbeeBZBzMX6VjqY7qr1X1rL/xexePrxTPad/CWf/Iw/pnhKgbWGrghk6q/Kp8unFLzS/HFA9uLpWt5FuebE3Z8FUGhVwrvlvu993VpXoRpigrBurPmM+GX4pPzb62U5ex/sU6RV/wpyzT8F3faKjJJ7ON57pc27YMC+tui03q61lsW745k99UR/evMPFqdrZt/13ayuWkz+uJ0fbvWG+pX3i17FKf6rjExuscqziEd/ZFbgh0n6iDqG0mf5WdWEbPWY2YKtOxTDuG1bYq9o38lM2ZtiQv+uaqYtx46axRb60voU43l1TjonQ0z2Way+Yir/tVI7/J/9L2Mr/gW8UiNzl5PIrNLh7vftVHBva1CsUBTxxW5EMiWgMvdlQ90bQY2E4UvqsBGeqEJHRt2DrRbjkwNupouUOXdVt+ijBb8fO+6E5Y+9uy3WZjO22TRer4JVfThuHVjqf/rPWjKmnt6++ZaVUrntBle4rUwpwKWtv2e8teVcYKr4hb17+imfVMAyc98fopT9+oVW23HFTnWmyCDftyofFNmWj6bv2qyqcTLX+DT+UkmXc1+uz4m47i5rThb6stba/VbmVXV5A8Gl99EdNWc1y12BfmGzGIYKycrzyL2qf2HCYNmrY26QMmRrFU5mozX7Jva5n4Voyv0teU0AZfrH8b5Df7kYMpD4qxli6VdWw/lPrm/Aa+SM2pfB5U5ANom1BPIiTVTpw1ojIp6S7L2is6W+xUpch5u2VnC3Zlm774LAdcnKjLO8ray9p+LBPbLLZCc1sSe+mXrmdjsJ3Wsgl17WAJJ20bnV/VDUh0oPp/xctOXLpGkQ9Z9Uq8cqesV72qsq2rLuVDX6bZfowrc2uyyFbiQVXGDHBfKvhUbsdKTjO/ht82X96UPZe52j5t3AxfG21YgYrVbL792RiX+O0/s+8Nv1rNN9tq+dQ6FziXDHOezNjMsTZznDxrtbFO5H2dps2y3zTHVbM9TanFfIP5qsEl56i3T5i2qj7s/TJl+mLXcW3sS9eXuhxqFvrY+CF9zcZmY9B+ZXN6bEa7q9q3Y82bKXIb2uzmpdxMKpfHx1pfdM1pHB9Q5H1SStEUBB52hignG59FUmySpHyRhL7kl51t0/bzBN+cHMQB/1naj1f6fBlWz3ZayyZYtYMlnGz55i90g7U3FzLw1aC0fuhownGRDxFJO5iiT2FCU7bLlUVlOZ7w9pv5MLybLIzNqoyeSFLZ3vaULRuzTGbGzza7HhbKfDhstNEUXtMXQ5trVs5tv4wDFaue3Bo/Qz8t5gHLuNE/1zE3bURPrV3jf6/Nst80x1WzPW2/EcMm81VgaseGtts6Nm218mL6QBhXpi8GyzqujX2J7fuxu0pko+fGVxkXesz7gjYG7VdGoPMb7a5qv9Wni9yuiNeXy3PiWl+yg5M5OJzIezitjhXEpS3+llKRlE0GTercdttcBE0S1+oAtu1Yx/tZd9S6bLuM9X+zeitsKZ5N23awhAbb9sSXVSxa11rnxFb4tIPCfteF7TX7XZeV42aMjYmir5zY8Z9VGT2RpIJVGW0gHTf8bnFqncvWGjbyNX/Qut70TedbH4u1+txKv6Raq62WT8W5Bs9qxV37U+dFnEifRRtyrdWWXGvlOl0zcTXHVbM9ZduKarq03tYan3UT+djwMv7HYqZM8L+ec0Pe8yOlzXwJdbxIr2XiPTF+iMireSz4a/1r2i79a7LNjOpdM3+prFPa66qa8xv40tWdxtGBRD4mt3WnlTvJBjzKpNgkJQM2CeF7eZcZ7OgtyjAw1N1aMKVe7LE3C8FmPUi6EOrOHK41fPETmH4Rycbo65WDTyb48rFBq157cjS+XS+LO/DQlh10Ephlm7i1b95SJVtHfzexVxNFc8ISZ7rPmE+9AooxFjd3m9iqyhhWoclk2zAqXkjUMSY3W1yLc+tYdOHGo8rXPuEqY7D9JPYt0/cb/tvmm32rVa84V/ribcbcNcanWd3VOVbjs2hDPDWTs5xWn7XNlFvVtuUVqjfbU4YlLmXHX93EVu2TH//dC2RlK/6bYdrqF7aMzGe6D4d66ic1xN8s+rHlwpfAQebBmt1aX32B1G6nDTFv8c34ZKHJ2+Q32ZGFm69Z+6rniDofcSxIPLHtkA/NaRNfkttT+TiMyIcElIAjgNgxugSvxmIHif0eareSEM51zwCX12Zg+Iq5k0u5Ltmtgdc613nfsC8XjS/Fm9DGj67DpgEkz/DlR3pU52uyCDF1cUQXjG/WH2VTXNafMe7E6NaVu9Evj+mCcmzzob9XzOs+0rVXX5Mm/GdXLvrWsUulmiy0BekDhpfi0/VTkw99w+hN6hhTE4Wgt85twMJ4q2JObJoxmnyrxzLxWXzrx0lVfH39odVWI+6KhYlzeW0max+kKqPzaHOc89Fqt9ohsPTid2tTt+dLhOtGrKuYWqYbMWxqy/pU3KxWbZn8tvJSibw3onLs5xWf5wbHXl9SfAWv1rnCX+NruiY3mvH9g6W7sTE0/JLd2NwHvK3UfrRTLoKKeFOfbuWj9KXxrtCmvhRxH/fLQUTewyw6g8TsgfVNIlKGTwhAAAIQgAAEBhHYv8i//S/uonjRRvxs39XJVT4hAAEIQAACENiNwP5Ffjf/qA0BCEAAAhCAwEACiPxAcFSDAAQgAAEITJ0AIj/1DOEfBCAAAQhAYCABRH4gOKpBAAIQgAAEpk4AkZ96hvAPAhCAAAQgMJAAIj8QHNUgAAEIQAACUyeAyE89Q/gHAQhAAAIQGEgAkR8IjmoQgAAEIACBqRNA5KeeIfyDAAQgAAEIDCSAyA8ERzUIQAACEIDA1Akg8lPPEP5BAAIQgAAEBhJA5AeCoxoEIAABCEBg6gQQ+alnCP8gAAEIQAACAwkg8gPBUQ0CEIAABCAwdQKI/NQzhH8QgAAEIACBgQQQ+YHgqAYBCEAAAhCYOgFEfuoZwj8IQAACEIDAQAKI/EBwVIMABCAAAQhMnQAiP/UM4R8EIAABCEBgIAFEfiA4qkEAAhCAAASmTgCRn3qG8A8CEIAABCAwkAAiPxAc1SAAAQhAAAJTJ4DITz1D+AcBCEAAAhAYSACRHwiOahCAAAQgAIGpE0Dkp54h/IMABCAAAQgMJIDIDwRHNQhAAALTJ3DjlosLd3Wvz1N/feGW133XOT93Aoj83DOI/xCAAAR6CawT+d6KXDgRAoj8iSSSMCAAAQjUBBD5msl5nUHkzyvfRAsBCJwageulWywW3b/LGxWhiHzclo/l9Pb9fXd1i+16BezkDhH5k0spAUEAAmdDIAh8LdoXd+8nBCLuS5elP9SR74j8qfcVRP7UM0x8EIDAyRK4uVy4TtBTmF7Eb125KPOyktcItLDrY12G41MhgMifSiaJAwIQODMCr7W32u9duYuFrNRbIu+cvzmIb9Qj8qfeaRD5U88w8UEAAidLoLmS9yLPSv5kc75tYIj8tsQoDwEIQGAqBDZ9Jq9exrt/90Jt57OSn0oq9+UHIr8vstiFAAQgcAgCQei7t+vLZ/Rpu/6ufgNftvK9c4j8IVJ0zDYQ+WPSp20IQAACRyXQfmZ/VJdofFQCiPyoODEGAQhAYEYEijfxp+R33GFYqMcMQ73z7y2MYWdo+8euh8gfOwO0DwEIQODQBPIWv/4Z+0M7saq96Yp886ZBeI5wU7KKypBriPwQatTZmED5ks/G1VTBcbYTw8Bs/qGOcewrhzmEAAQmRKApyjv4V9kLP7LY+H0FO7QxZlVEfkya2NoDgXFE2A/Mi1sXjW27cezvIfD9m0yT0xh/gaya+PbvPS1AYCMCY/fN0p6fP6Yr8B4QIr9RN6HQ8QiMI8JB5O9eNf6s5jj2j8dnh5YnLPJhItW/jz0c67fCd4ibqjMgELfr808KhL7qHy1EUZXf1Z+v54jK6/5ZfCnKsWDYYVT9K9/otlblZpx09lY/Uij7sHosErb2675c7HqmNiXO7jcY5kA3PkDkN0ZFwUEEihd74qBYXuuBqDp/aCANnDQAL4Iwl2XKASqDJdrMgzX9aJC8cOMHXJgQqgHm62n72reF+nli51yK5cb/nHHwL9ULNtOPMNlncvpa0c4gmpOt1E1847g4tr1xvMLKOgIPHz503/3e99YV2+B6S+T9GJPxnsZjMabi2NXCn+cKNS4LMfWeGBEP4zy3Y/xw8bcFLi6vwm8blPnFBlT13zAPyDxj5ypfW7djr993V5fya4ptS+u/I/LrGVFiFwJJGOPv0RYB7wZqGAz5t3Ppjh4bDdfVQLYDNHyXARwGa7JdtBsHpgz+cgD6ASWDL04c3Y2CGWxJsMVONYGE9ktb1aSUY90F6vTqlkx3929se7t7hIVNCPzPP/oj985HHnH/9jd/0/313/zNJlV6ypi5wApxqFWWsXODGC77khnvqVBZprPbshnK6pt8aUg+9Twk5woRd66Yt3wZXcfOI9nGsANEfhg3am1KoBDbOHg6EW117u4GIDahB2WjvvPXuzp+ALZW//G8/stcIsbafh1UUa+IRXwXO75u6V9RN5j213X5ur2DnrGTSf7umfT9chXvYXl9v1uiDSI2D6FI9Cn3rY1jiTnL26IL+Z3ujXY5tZbAt7/9bfevf+mXgtB7sf+tD3/Y3fv+99fWqwvEvMgNdRRBO3bKMvV4i1b9+bziDv2i69s677mMr5bL2TZlJZ8eA6i5J8eQFgOF7bwzmeagYL+bt6zoB599HVnAZOPbHyDy2zOjxjYEigk5Dso8EXs7urMXZaURLcJGXLIQ6YEYy+TJIZmxE0B3h67t+8L1pJ9tVf75ut1AlboxvtqODPoifgnzGJ+BvWKXJzYVU5iwVJkk8JmJJyaPL9SE1PFNgSXbOfZgV9opJ2tfo5iYLZsqD6FG+b7FFrEUE+n1Mv3hFtso3zcl8POf/9x9/RvfcO//5V/OYv/vPvpR94Mf/GBTE3kc5n5m+2qwVPYbO8alsaIvBTvS76RE61PmGt33YzltLxwXc0D3WE+WFC3r9VxRtyNlwryhxlbbXv9ZRL6fDVfGIFBMyHFQ5one29eDTh9L28Xg9vVbg0EKR8G5uFyqv8IVr9UTgEwQ/mU8sVn7V9QrYvF2V4l8FKoi1s7NaRwVbCUXdiUrnNIDl+L3nndh6IkvchGmfWU6u9UNgYh8vokz7ztUefBtxEk58w6xDYul83i7o88984zjX8fgM5/9rLvz4Q+7J558Mov9v8RQkoIAACAASURBVPnVX3X/8A//sAHYrn+EwravhpNlmdAHq8dhsUx3I2f6SY8nMu57+2YW3WRft9v0tdGQ78feji+v69uivpy9kbBlVnxH5FfA4dIIBIoJOQ6IPBF782FAyJ11HID57j1P9p1gtAZd9lK1FcrlgVg+k8/lQ9teQMS+b1+OfSnjj7Ifbfjr4rs/Y+LbcXBmP/d1YCcj+z20G2OSnMjkZ10qRD5zbWyLqpzE3Gv+ndXCXnc6HlV58KdjrnLf2iEW29ym3x9/17uymPmtav61GfzCo4+6P/2zP1uDtex3sa/osemrt8qUP84W5gGz7R36VjFu/eJg6a7uRZdiHRnXZg6QOUn349T3ujfgo1/d92j35lJsSuhx/ri6exFfCpbT967c8q7aB9hxHkHkBSyf+yFQTMix8+eJ2LcYJmPd+eOg6ra2/fdycMdBqgRE7oaL56lpoKXB6OuIUOlA44Du7OdJIawil26p6xWxeCtxkN5kg3V8pT3ztn6ud6QDK4T2e3ArxiTs+jiGnMjEV+W0Lz7JdcdfShb25KR8VnnwF6Kt3Ld2iEWa2fbTv3TGv47Bs5//vPu1p54qbnae/tCH3D/+4z9ugLbsdxuJvLca8t7NDb7ftvpSOKd3iqTvBkE1O0DmXMte167MZWn+UW3IGNLBRz+kTrpiYthlFe8tIvKaOMcQOCcCVgjt98CinGzDpFRtLaYJTSZKK7g9TL0tP/GFGyFjszmRip0w6bYnxm1EvtWuNMHncAIvPnjg/tPv/I7zK3a/m/Ho7dvuk5/6lHv5Rz8abvREa67s5yPFjMiPBBIzEJgdASvq9nsIqBR5WbHoVUnercgin16cG3VLVNONq/bOh27VtI3Iy+q/e15rf4RSt8nxJgT++x/8QV65/+Jjj7n/+ulPu1deeWWTqmdYxuw+7YkAIr8nsJiFwOQJWFG330MARuT9uVDuCFuiGmjaQo2Pdfx2v5kwN41FnqfmbVWzQ6Db5Hgtge88/7zz7yb4FxBfffXVteXPucChdpKOK/LNgXjctO9r+yTY9ROJ2ZY8brS0DgEIQGBcAq+99tq4Bk/NWr5JPswNJSJvOlBL5PN2ZL7br18UMmaKr0Pu2KTNbkuyMJm+xNULNw4tNpyDAAQgAIHDiXzvyzLbCea+U2ZFPnw3q2/94xab+GNtblIn3hhcbPDzk+wObMKTMhCAAATOkQAib7JeCrJfKe9+E1LaNA32fM0iX/xYmC4cn5UuL5c8AtBYOIYABCAAgUzgICIfRC5vdfsXdtKziPxMPm07pzLFFrWUub5yF+F69xxDtrS7n6nOcYUDe72wG0qU7fq3bEtBjtfrepu2Y+wXf3fYXKt2Cy6CeIe/eKbeWs4tBy5Ld+N3SExdyzu/cewrC8973RvJu/7axOwTBxCAAAQgMCkCBxH5EHHvdr0SfV8wlFOr5yBK9ZZ0XOmqP7+XynWCduOWWhxb1wvRbf8O7ujPqj8UsK6d1u/hjgLf+ZrKKLHu4vNlFY/UfbyQh5sPK/LN35ak6gvPwma64dC8JtVNcQYCEIAABIYQmITIa7Hr+1WFZZl+4St+5rUgUv4oUCeiRSGzkpdrSQT9TsJaISzb8RbK3YF0M2HtBPHtxFj7lwVd3NG/ac2KfC4jB9H3zK+62UnlWjdhYoJPCEAAAhCYJYEJiHwnbJGgEUkjfqFMXo12P6srW/alCCtxNo8CauGMrVtBLrMq9rpHBqlW8ac5vS96i9/aDN+TP9nv8L1joUU+brF3bYZrcpPQEvkGn1Lku3ZyfC3O+SIHEIAABCAwRwIzFvlO9FrggxAWL62VNw/DRN63VNpZ146v0RJ5fRPQ67/avvc2olD79pVIG5GPNxDquv0Vo31i3ne+5RznIAABCEBgFgTmKfJWuCrUpRDHy+W5IIZKRHWZcjegMq5Eu7SpbWgRtyJfrNJr8+FMVcaLsPfXi7qs4n3JQuTN1nywZM71iHnVXo9fnIYABCAAgfkQOJzIt8Sldc6slLu3wUuoccVarub1z683hVVvo4e2y211WZV3ImpeqvMupHqy/b22ncZKXmzoG4Hwe7SVeNeiG1fwF3oV7/0pRL6+6YicZBeg8z//hIOKqfSn5M23aRD42c9+5n79Qx9y3/jmN91bb701DafwAgIQmCyBw4m8iF149pzEeQeR90RFwPJzbSWS+Y9P5GfxN+7qVinqIrZS34tcKdryDF4/+9db4cGL4nn8xd26ndJm6gvpZkHa7v6mebxei7wV9GSnEHkt4tHn5XXPSj7/SGIsh8AnnhP/+Po3vpH/AMj73v9+99xzz7mHDx9O3GvcgwAEjkXgoCJ/rCBpVxFo3lip6xxOnsAL3/2u+/Wnn85i/973vc/94Ve/6vwqn/8gAAEIaAKIvKZxDscDRN7/Hej/++KL/JsYg+dubtzyAx/IYv/ke94T/rTnG2+8cQ49mRghAIENCCDyG0A6qSIDRf6djzySxYTjabN44skn3Re/9KWT6rYEAwEIDCOAyA/jNt9aA0X+Ax/8oOPf9BhcLpfuX733ve4XHn003IT5T/+3vPlzn/MdongOgTEJIPJj0sQWBA5EwIv4Zz/3OffYE08Ecb/9+OPu05/5DOJ+IP40A4G5EEDk55Ip/ISAc0HEtbg/evu2+y+/+7vulX/+Z/hAAAIQqAgg8hUSTkBgugS+/Sd/ElbuXtz/8yc/6f7pxz+errN4BgEIHJ0AIn/0FOAABDYn8Pbbb7tnnn3W/fCHP9y8EiUhAIGzJYDIn23qCRwCEIAABE6dACJ/6hkmPghAAAIQOFsCiPzZpp7AIQABCEDg1Akg8qeeYeKDAAQgAIGzJYDIn23qCRwCEIAABE6dACJ/6hkmPghAAAIQOFsCiPzZpp7AITAigQG/LnnE1jEFAQj0EEDke8BwGgKnT+DGLRcLt7weIVJEfgSImIDA+AQQ+fGZYhECMyGAyM8kUbgJgcEEEPnB6KgIgbkTQOTnnkH8h8A6Aoj8OkJch8DJErAif99d3Vq4i7v33c3lwi0W6d+tK3ffMLh/96K7vrhwV9dX7sJ/3lMFwxa+snN5ky9G+0vXnXGxzUZbuRIHEIDA1gQQ+a2RUQECp0KgLfJe3Lvn9LGMF375Lwq8FuhYZqFFvnpGH28gFlnouxuKYPd66RYLbVNa4xMCENiFACK/Cz3qQmDWBHpEPgtxDC6Iel5h2zoJgBF1v1LXNwahlBXy/L3H5qzZ4jwEpkEAkZ9GHvACAkcgYMXVrK6TR4XIBzFvrLgLkU+rdtnuLz7LuvmxgLmxOAIMmoTASRJA5E8yrQQFgU0I7Ffkuy3/fl/ys31Evh8SVyCwAwFEfgd4VIXAvAkMFXn9zD4RCFvv3Yt3YYW+TrjzroD1Y95U8R4CUyKAyE8pG/gCgYMSsOK6wXa9S2/BFy/JRTvFi3dB9M3NwL0rt8wv8MU68ty+fpnvoCBoDAInSwCRP9nUEhgE1hEYJvLean6WHp63L91N8Uw+tZuEPv8oXr4xSM/s88t8vnzr3Dr/uQ4BCKwjgMivI8R1CEAAAhCAwEwJIPIzTRxuQwACEIAABNYRQOTXEeI6BCAAAQhAYKYEEPmZJg63IQABCEAAAusIIPLrCHEdAhCAAAQgMFMCiPxME4fbEIAABCAAgXUEEPl1hLgOAQhAAAIQmCkBRH6micNtCEAAAhCAwDoCiPw6QlyHAAQgAAEIzJQAIj/TxOE2BCAAAQhAYB0BRH4dIa5DAAIQgAAEZkoAkZ9p4nAbAhCAAAQgsI4AIr+OENchAAEIQAACMyWAyM80cbgNgakQ+OznPuf8v7/8y7+cikv4AQEIJAKIPF0BAhDYicBHPvpR985HHkHkd6JIZQjshwAivx+uWIXA2RBA5M8m1QQ6QwKI/AyThssQmBIBRH5K2cAXCJQEEPmSB98gAIEtCSDyWwKjOAQOSACRPyBsmoLAKRJA5E8xq8R0KgQQ+VPJJHFA4EgEEPkjgadZCGxAAJHfABJFIACBfgKIfD8brkDg2AQQ+WNngPYhMHMCiPzME4j7J00AkT/p9BIcBPZPAJHfP2NagMBQAoj8UHLUgwAEAgFEno4AgekSQOSnmxs8g8AsCCDys0gTTp4pAUT+TBNP2BAYiwAiPxZJ7EBgfAKI/PhMsQiBsyKAyJ9Vugl2ZgQQ+ZklDHchMDUCiPzUMoI/EOgIIPIdC47OhsC33HJx4a7ubRvwjVsulu5m22qhvK3rvy/cxd37g6z5SvfvXrjFrSs33MLgpouKiHyBgy8QmBQBRH5S6cCZaROwQr2Nt7rufXd1a+GW19vUV2XvXbkLf4NwuXQXiLwCwyEEIGAJIPKWCN8h0EtAC3VvoZ4LXd2by91W8LkBL/aIfMbBAQQgUBNA5GsmnDl5An67Xrbdk/heL91isQj/9Ao7bImn8xd3r1Q955yqk7fNwypbbDvXCXps58pvsV/WG/6+nLQft/B9+fKRQmcrJQiRP/meSoAQ2JUAIr8rQerPkIAV+UUnvF64ZXUcRLwT7Cj46bu/psTaX5Pn6/m4KONF2wt5Kdwenhfv7sbCb+XHMtlOIJxuRjRtRF7T4BgCEGgQQOQbUDh16gSsyHdC7lwnpl5kO/H1TMprsvLOn1n04zP3Rd4tUHXNjYNzUrZbyXt7oV0t4sUNQ8qPvn7ElPHi3RHh0zQE1hBA5NcA4vIpEthM5MsVtudQirys3FuE4vZ7/81D3i0IIl+v7sXmzWW8Jp9yPnwi8gUOvkAAAjUBRL5mwpmTJ7CZyIdn7rJ1Lz+yJqvzakXeQcvb7MXqu7tB8CXDTUBa+evjzko6ul668C6A8iOXQeQzCg4gAIE2AUS+zYWzJ01gQ5EXMe558c6Led6qly32QvzjVnz3Ip1d2cu7AHbLvi5XPjZIyUHkT7qXEhwExiCAyI9BERsQ2BuBcgdgb83sYJhn8jvAoyoE9kwAkd8zYMxDYBcCYbcgv9C3i6X91UXk98cWyxDYlQAivytB6kNgLwT8Cn7R/TjfXtoYxygiPw5HrEBgHwQQ+X1QxSYEzogAIn9GySbU2RFA5GeXMhyGwLQIIPLTygfeQEATQOQ1DY4hAIGtCSDyWyOjAgQORgCRPxhqGoLAaRJA5E8zr0R1GgQQ+dPII1FA4GgEEPmjoadhCKwlgMivRUQBCEBgFQFEfhUdrkHguAQQ+ePyp3UIzJ4AIj/7FBLACRNA5E84uYQGgUMQQOQPQZk2IDCMACI/jBu1IACBRACRpytAYLoEEPnp5gbPIDALAoj8LNKEk2dKAJE/08QTNgTGIoDIj0USOxAYnwAiPz5TLELgrAgg8meVboKdGQFEfmYJw10ITI0AIj+1jOAPBDoCiHzHgiMIQGAAAUR+ADSqQOBABBD5A4GmGQicKgFE/lQzS1ynQACRP4UsEgMEjkgAkT8ifJqGwBoCiPwaQFyGAARWE0DkV/PhKgSOSQCRPyZ92obACRBA5E8giYRwsgQQ+ZNNLYFB4DAEEPnDcKYVCAwhgMgPoUadeRP4we+5i1tX7r6P4nrpFpc3zrn77urWhbu655y7d9Vdn3ekB/EekT8IZhqBwCACiPwgbFSaNQFEftT0IfKj4sQYBEYlgMiPihNjEDg/Aoj8+eWciOdDAJGfT67wFAKTJIDITzItOAWBQACRpyNAAAI7EUDkd8JHZQjslQAiv1e8GIfA6RNA5E8/x0Q4XwKI/Hxzh+cQmAQBRH4SacAJCDQJIPJNLJyEAAQ2JYDIb0qKchA4PAFE/vDMaRECJ0UAkT+pdBLMiRFA5E8soYQDgUMTQOQPTZz2ILA5AUR+c1aUhAAEGgQQ+QYUTkFgIgQQ+YkkAjcgMFcCiPxcM4ff50AAkT+HLBMjBPZIAJHfI1xMQ2BHAoj8jgCpDoFzJ4DIn3sPIP4pE0Dkp5wdfIPADAgg8jNIEi6eLQFE/mxTT+AQGIcAIj8OR6xAYB8EEPl9UMUmBM6IACJ/Rskm1NkRQORnlzIc3p3At9xyceGu7m1r6cYtF0t3s221UN7W9d8X7uLu/e2tXS/douH//bsXbnm9vbldayDyuxKkPgT2RwCR3x9bLJ8cASvU2wSo6953V7cWwwX5eukubl24xa0rp28REPlt8kFZCJwHAUT+PPJMlKMQ0EK9rcGu7s3lwBW8NOlX8pc3ztvRK3dEXgDxCQEICAFEXkjweUYE/Ha9bLsn8Q1b4Au3WNTC6c/5fxd3r1Q955yqk1fV967cRbbtghDHLfnYztXdiyDQFrYX7K4dvz735ctHCvnmIIm8M20h8pYq3yEAAUSePnCGBKzILzrh9QIq2+BBxOVmwDkvogsRcBHaRM9fk+fr+bgo40XbC3kp3L56uSL3W/mxTLYT2kg3I/5Y2Q0+Xca3BPyxXtkn1/b+wTP5vSOmAQgMJoDID0ZHxfkSsCLfCXlcQcfvtWh2QhvENa3wZQXut9Djf/GZe74hCCdTXXPj4JyU7Vby3l4Qa79S1zccYl+JfKzf3RQg8vPtlXgOgX0QQOT3QRWbEyewmciXK2wfUinysnJvBRu33/tvHvJuQRD5enUvNm8u4zX5DOcLkU8r+1tX7oaVvGDjEwIQSAQQebrCGRLYTOTDtrispF1ju1627g1Bv8oPNwCFGHc3CL54uAlIK3N9bEyFrfnwLoDyQ2/XS3lvw79xz0peiPAJAQh4Aog8/eAMCWwo8iLGPS/e2S37ILDFdnzcitcv3smGftwVkHcB7Ja93QEoXwZsiXx8Cc+UO1BmeSZ/INA0A4EBBBD5AdCoAoHDESh3AA7X7uYtIfKbs6IkBA5NAJE/NHHag8AWBMJugbxwt0W9QxZF5A9Jm7YgsB0BRH47XpSGwIEI+BX8ovtxvgO1OqQZRH4INepA4DAEEPnDcKYVCJwsAUT+ZFNLYCdAAJE/gSQSAgSOSQCRPyZ92obAagKI/Go+XIUABNYQQOTXAOIyBI5IAJE/InyahsApEEDkTyGLxHCqBBD5U80scUHgQAQQ+QOBphkIDCCAyA+ARhUIQKAjgMh3LDiCwNQIIPJTywj+QGBmBBD5mSUMd8+KACJ/VukmWAiMTwCRH58pFiEwFgFEfiyS2IHAmRJA5M808YQ9CwKI/CzShJMQmC4BRH66ucEzCCDy9AEIQGAnAoj8TvioDIG9EkDk94oX4xA4fQKI/OnnmAjnSwCRn2/u8BwCkyCAyE8iDTgBgSYBRL6JhZMQgMCmBBD5TUlRDgKHJ4DIH545LULgpAgg8ieVToI5MQKI/IkllHAgcGgCiPyhidMeBDYngMhvzoqSEIBAgwAi34DCKQhMhAAiP5FE4AYE5koAkZ9r5vD7HAgg8ueQZWKEwB4JIPJ7hItpCOxIAJHfESDVIXDuBBD5c+8BxD9lAoj8lLODbxCYIIG3337b/a9vfcv977/6q+CdFfn/8YUvuB/+8IcT9ByXIHB+BBD588s5EUNgJwJf//rX3TsfecT9+tNPBzta5P/u7/4uXHviySfdw4cPd2qHyhCAwO4EEPndGWIBAmdF4M0333RPvuc9Qcy/+73vOS3yv3XnTjj/7Oc/f1ZMCBYCUyWAyE81M/gFgQkT+OKXvhTE/Kmnn84i/7Xr63Du9uOPu9dff33C3uMaBM6HACJ/PrkmUgiMRkCv5r3Q++37X3vqKVbxoxHGEATGIYDIj8MRKxA4OwJf+vKXg6i/693vDp9e6FnFn103IOCJE0DkJ54g3IPAVAn89M033Xve+94s8F7k/9vv//5U3cUvCJwlAUT+LNNO0BAYh4Cs5r3AP/bEE+6NN94YxzBWIACBUQgg8qNgxAgEzpOAfzb/i7dvh9X873z84+cJgaghMGECiPyEk4NrEJgDgS9/5SvO/1w8q/g5ZAsfz40AIn9uGSdeCIxMwK/m/+hrXxvZKuYgAIExCCDyY1DEBgQgAAEIQGCCBBD5CSYFlyAAAQhAAAJjEEDkx6CIDQhAAAIQgMAECSDyE0wKLkEAAhCAAATGIIDIj0ERGxCAAAQgAIEJEkDkJ5gUXIIABCAAAQiMQQCRH4MiNiAAAQhAAAITJIDITzApuAQBCEAAAhAYgwAiPwZFbEAAAhCAAAQmSACRn2BScAkCEIAABCAwBgFEfgyK2IAABCAAAQhMkAAiP8Gk4BIEIAABCEBgDAKI/BgUsQEBCEAAAhCYIAFEfoJJwSUIbEzgeukWi6W72bjC/greXC7c4nIKnuwvRixDYG4EEPm5ZQx/IaAJnJzI37jlYuGW1zpI58INRON8WYpvEICAJYDIWyJ8h8CcCExY5O/fvXCLW1fu/lY8a5EPdhYX7ureVoYoDAEIOOcQeboBBOZM4NRFPsSHwM+5i+L7cQkg8sflT+sQWEtAtqoXi4Xz/4qt7CzycQUsZS7umvVzKBfrhzLFs/P77uqWumbbcPF60a5zzq7Uu2fytb1iRX/vyl2kWGpf1Eo+lbPtCrCSS3cj0PkhJf1n9ClzWclD1+MYAvMmgMjPO394f+oE7l25pRZsu7LNYqVevkvimAUtfO9E0Lkbt8win24O8nfnnK2/tcjHpNibgHC28iXdEOT2k8jfjTcCKwU+13HOaS7hWPHwDet29XFwSvOIvvN/CJwKAUT+VDJJHGdCQK10fcRa3BSBQmBbopfKFuX66o8o8n6VnW8+pL3Cv3TT4Vf6fc/zg0gbES9W6vXOQ4hTbgqK9sQJPiFwmgQQ+dPMK1GdEoEgaj3b6X2CVZzvts+twDZF17MrhLQWTV/E3iDYbXJ7XbbM5ZFC+SmiLTcxSexFmHU+Q2wlD7El8RWiXt2k9PPQzXAMgVMggMifQhaJ4WQJBOEs3iwXEUwhF2KuMDTPd6tkEcNjiHzfFnz0XsfXI/Q+tr5VviDQNyn+uFm+5iHV+YTAqRBA5E8lk8RxggT+rPEz41oEZbteVsEdAruq7q6UK/B6tR1LlufjylduDMRWaEOJp22ztBFr2TJiq/s08aVdjKLtcE6/Y9DV1ke+LX9D4f0o6utCjR0Jc5mvEJg1AUR+1unD+dMm8GJ4610LVBBJ/fa7bF0rsY3P6dVb+NfL4o38Unwbq+UkrHrFHero36zXaLcS8NZuQqqnbftHA93LhUbkfYJTnY5D2m7XMTv/C3PMzY6vd3nlrm6ZG4KVPE67RxHd+RFA5M8v50Q8JwJJcOWZ8/LaiKAIaRLCrpwK0lyrt7qT0OcfazOiGEx1z7FDG5c3a5/JF8/gtSBbf/TNg3/zX9/EpDDiTYb+tbnGn0Xjhb5kq/pVu7Z97ZvCxiEEToEAIn8KWSQGCECgQaB9w9AoyCkInCwBRP5kU0tgEDhzAmHFbrbwzxwJ4Z8fAUT+/HJOxBA4AwLtlwXPIHBChEBBAJEvcPAFAhCYO4H6+f3cI8J/CAwngMgPZ0dNCEAAAhCAwKQJIPKTTg/OQQACEIAABIYTQOSHs6MmBCAAAQhAYNIEEPlJpwfnIAABCEAAAsMJIPLD2VETAhCAAAQgMGkCiPyk04NzEIAABCAAgeEEEPnh7KgJAQhAAAIQmDQBRH7S6cE5CEAAAhCAwHACiPxwdtSEAAQgMF8CD55zL925415+Yb4h4Pl6Aoj8ekaUWEGg+hOkK8pyCQIQmBCBhsi/+uwd9+Djz7k3JuQmruxGYLoiP7k/LrGv34Wt/mTm5c1u2TxC7ZbIh3P8+c4jZIMmIbAFgTFEPtj4hHvlwRbtUvSgBBD5jXG3Rf7mcuHkb3jHz+3+6lWov6W4S5vL6xXOy98h39L2CosbX0LkN0ZFQQgcj0BD5Ld2BpHfGtmhK0xC5JuiMPmVfFqBGxG9udxG5Ns3Dus6gRf5i1sXbmHa1vXiCnuxsowuP+ZxM59jNoAtCEBgdwKI/O4MZ2ABkd84SUaQw0p5G0FvNWRstoo0zoWV/K0Ld7G4cFf3GgXcjVsuLtzycvWNQKvmtufizUTiILsHC727UfqYbz5SmYu794sm8w2CsRV3LdKNldhvPRIIN4e6/V1zVLjHFwgclcCf//mfu7feemscHxoiXz+Tf9G98vE77sGd7t9L1y865+rzvky85t173r2s6vhrvOA3Ttq2tXJkkf+pu7qlJ+SFW8jELSv55mSfwpQyMrFLXeecbGnHLfRSaHzt8vrCVVvfpt2LuzfB1yxK6XpVz2Sgtx1j3/uZbdlrZsUebF7ehBiyP7pdz+PWlbu5a0Xei7/mbQRQeIabhK5cs43UXiHy+pzKhbgWWag2U5zafr4JUPVjvQt3cUsxEh81m+B/mevtdlbEUz4hMD0Cf/XXf+3e+cgj7pd/5VfcN775zd3Ffq3IJyF/9vkOxoPn3MtB5NOp5nZ9FPhO8J1zLzyDyHcUD3p0ZJGPsebVmw69IdyVoEgZPdGLgOtzdvK/d+WWegXZuH6hRVdsLhauJUj6nA7BrWvHNVbyQfi0UKXVq4pHRN7bv1go0QyNx/L+hiHwUvXu310WK/9gR4mpE57aZkOIdYxVTlxqV9v1FZKdfCOTjNj68buOv6trH08069p2tbMcQ2DGBP72b//WfeCDHwxC78X+fe9/v/va9bV7+PDhsKjWinwU65Ur8JbIt84N85BaIxCYuMibyT6t3rJQWHH2QFYIX68YG7tZRAvADUHO7cVVb799MRRX0tn/hsj7tis7Ic5OzDv/OkGXFkL8SeiCCCqRz2XkwNiNIm+Z94h2smGF1p8O54zYts4FEyaH7XKRm+VStR1sHec9BEHKJwT2SeDtt99233n+efdrTz2Vxf6973uf+8OvftX97Gc/267ptSIvW/Ir3p5vCrps1T/jXt3OI0rvgcDERb4Tthi7EUkrUr6QTPTFtnRDhNPKUr8ZH8W3IZyh8R6Rl6SIPSNusoKt2/EVrc34XZftjjsWncineFWb+iYhiKAR+SiM3Vb8Qq/aWzwz0659CTlE4B8JaBs9Ih98ET4T1AAABEJJREFUbuQkxtfdWOwk8t4hyUNoq+2z9t8f/95nPuP+48c+xj8YzKoPfOg3fsO9693vzmL/6O3b7gtf/KJ7440Nf8p9rcjHkRKe06fn68UWvL/cFHl/QW4Q4rP8lbsBsRn+vycCpynySvRa3KLgdMLiipX8QJEPDZU3Iavb8RXaIt+t9Fvep/cJsnh7GxKLb78TtlLko2/5nQdv2oq6/S7N950XQVdthqi88JsctMVbGug+2+Wi72tX8p2ZzHbR+3JiV9iLvN/+5B8M5t4HHnviCfflr3yl69yrjjYU+WzihWfiC3jmGf1Ld1as9J1zb1x/ItSrbhCyYQ72SeD0RD6s5ET0WuhKIY4l9Lm0ms4iKjbaQiNX46cWbW1TStlzunwsE24Mqralfk8ZL8KXN2GbXAthIfItobbn7PfU7CqfQhsbiHzfo4AysvZWv9yE6dh8vVbbpT3Lu7wq355/4QXHPxjMqQ9864//2P373/5t51fv/sbkFx97zP2Hj33Mvfbaa9Kt139uK/Ii2Po34vWu5Mvmw26AvjkoL/NtjwQmIfLVitIH3BQcM2k3yySRNivJ7i3rHmHVL9oFu/pN7u5t/Cw09qW67LPcYGzQTrWSl7jLtv0WtH5RsBZdz8W/fd6t4r07hchXNz+RZbHVnuIuVuGWRdoOl92GptCGOsJBem/Ki7khsLEFeyZ3m4q8fbFw0xsL8ZBPCEydwE9+8pPweOn2448HcfeffidqK3GXINeK/PPu5UKYG2/bpx+VK1bp9g38Vhnxgc+9E5iGyCexC89nZYIPQlGKlkz2IjDtGwHPTASle/acxdlfLp7bekE1Nw++jAheeo68vDaibWzEZ8vGX1OmbsfYlHSbtgshljf9zWq/EPRkx56LgixMlu7GMpbvpv3MW7GTc9GmibvgX4p9fIQhPvjPsm6wJ31AeKTHKUUO5SZG1S/j87bLtrM5DiAwQwJ/8qd/GlbsfuXuV/C/++lPOy/6g//bROTNz7o/KEQ/tizb8fnn5JPd+mfrB3tKxR0ITETkd4iAquMREJEfzyKWIACBkQi8/PLLQeQ/+alPuX/68Y9HsoqZUyeAyJ96hreJD5HfhhZlIXBwAq+//vrB26TBeRNA5Oedv3G9R+TH5Yk1CEAAAkcmgMgfOQGTah6Rn1Q6cAYCEIDArgQQ+V0JUh8CEIAABCAwUQKI/EQTg1sQgAAEIACBXQkg8rsSpD4EIAABCEBgogQQ+YkmBrcgAAEIQAACuxJA5HclSH0IQAACEIDARAkg8hNNDG5BAAIQgAAEdiWAyO9KkPoQgAAEIACBiRLYSOT//rnbjn8woA/QB+gD9AH6wDz7wE9/9BfhNuQd+mbkpe98BHHnBoc+QB+gD9AH6AMz7wNNkf+Xn//U/cvD1/kHA/oAfYA+QB+gD8y4D7z99lv1Sl6v6jmGAAQgAAEIQGDeBP4/FHL/ff3OQAIAAAAASUVORK5CYII=;" vertex="1" parent="1">
          <mxGeometry x="570" y="1180" width="505" height="346" as="geometry" />
        </mxCell>
      </root>
    </mxGraphModel>
  </diagram>
</mxfile>
